<svg xmlns="http://www.w3.org/2000/svg" width="108.36" height="108.36" viewBox="0 0 108.36 108.36">
  <g id="Layer_x0020_1" transform="translate(-20.82 -20.82)">
    <g id="_1938807309552">
      <path id="Path_1427" data-name="Path 1427" d="M75,20.82c-14.71,0-16.56.07-22.34.33a39.712,39.712,0,0,0-13.15,2.52A27.74,27.74,0,0,0,23.67,39.51a39.712,39.712,0,0,0-2.52,13.15c-.26,5.78-.33,7.63-.33,22.34s.07,16.56.33,22.34a39.712,39.712,0,0,0,2.52,13.15,27.74,27.74,0,0,0,15.84,15.84,39.713,39.713,0,0,0,13.15,2.52c5.78.26,7.63.33,22.34.33s16.56-.07,22.34-.33a39.712,39.712,0,0,0,13.15-2.52,27.8,27.8,0,0,0,15.85-15.84,40,40,0,0,0,2.51-13.15c.26-5.78.33-7.63.33-22.34s-.07-16.56-.33-22.34a40,40,0,0,0-2.51-13.15,26.54,26.54,0,0,0-6.26-9.59,26.38,26.38,0,0,0-9.59-6.25,39.712,39.712,0,0,0-13.15-2.52c-5.78-.26-7.63-.33-22.34-.33Zm0,9.77c14.47,0,16.18.05,21.89.31a29.73,29.73,0,0,1,10.06,1.87,17.91,17.91,0,0,1,10.28,10.28,29.73,29.73,0,0,1,1.87,10.06c.26,5.71.31,7.42.31,21.89s-.05,16.18-.31,21.89a29.672,29.672,0,0,1-1.87,10.06,17.91,17.91,0,0,1-10.28,10.28,29.731,29.731,0,0,1-10.06,1.87c-5.71.26-7.42.32-21.89.32s-16.18-.06-21.89-.32a29.672,29.672,0,0,1-10.06-1.87,17.91,17.91,0,0,1-10.28-10.28A29.672,29.672,0,0,1,30.9,96.89c-.26-5.71-.31-7.42-.31-21.89s.05-16.18.31-21.89a29.73,29.73,0,0,1,1.87-10.06A17.91,17.91,0,0,1,43.05,32.77,29.672,29.672,0,0,1,53.11,30.9C58.82,30.64,60.53,30.59,75,30.59Z" fill="#d8ae7c"/>
      <path id="Path_1428" data-name="Path 1428" d="M75,93.06A18.06,18.06,0,1,1,93.06,75,18.065,18.065,0,0,1,75,93.06Zm0-45.88A27.82,27.82,0,1,0,102.82,75,27.826,27.826,0,0,0,75,47.18Z" fill="#d8ae7c"/>
      <path id="Path_1429" data-name="Path 1429" d="M110.42,46.08a6.5,6.5,0,1,1-6.5-6.5A6.5,6.5,0,0,1,110.42,46.08Z" fill="#d8ae7c"/>
    </g>
  </g>
</svg>
