<svg xmlns="http://www.w3.org/2000/svg" width="105.28" height="85.56" viewBox="0 0 105.28 85.56">
  <g id="Layer_x0020_1" transform="translate(-22.36 -32.22)">
    <path id="Path_1430" data-name="Path 1430" d="M22.36,108.07a61.015,61.015,0,0,0,33.11,9.71c40.1,0,62.76-33.87,61.39-64.26a43.415,43.415,0,0,0,10.78-11.18,42.973,42.973,0,0,1-12.4,3.4,21.666,21.666,0,0,0,9.5-11.95,43.264,43.264,0,0,1-13.72,5.25,21.615,21.615,0,0,0-36.81,19.7A61.31,61.31,0,0,1,29.69,36.17a21.624,21.624,0,0,0,6.68,28.84,21.6,21.6,0,0,1-9.79-2.7A21.627,21.627,0,0,0,43.91,83.76a21.541,21.541,0,0,1-9.75.37,21.591,21.591,0,0,0,20.18,15,43.394,43.394,0,0,1-31.98,8.94Z" fill="#d8ae7c"/>
  </g>
</svg>
